<svg width="54" height="54" viewBox="0 0 54 54" fill="none" xmlns="http://www.w3.org/2000/svg">
<g clip-path="url(#clip0_21_376)">
<path fill-rule="evenodd" clip-rule="evenodd" d="M40.5 9C40.5 8.40326 40.2629 7.83097 39.841 7.40901C39.419 6.98705 38.8467 6.75 38.25 6.75C37.6533 6.75 37.081 6.98705 36.659 7.40901C36.2371 7.83097 36 8.40326 36 9V11.25H9C8.40326 11.25 7.83097 11.4871 7.40901 11.909C6.98705 12.331 6.75 12.9033 6.75 13.5C6.75 14.0967 6.98705 14.669 7.40901 15.091C7.83097 15.5129 8.40326 15.75 9 15.75H36V18C36 18.5967 36.2371 19.169 36.659 19.591C37.081 20.0129 37.6533 20.25 38.25 20.25C38.8467 20.25 39.419 20.0129 39.841 19.591C40.2629 19.169 40.5 18.5967 40.5 18V15.75H45C45.5967 15.75 46.169 15.5129 46.591 15.091C47.0129 14.669 47.25 14.0967 47.25 13.5C47.25 12.9033 47.0129 12.331 46.591 11.909C46.169 11.4871 45.5967 11.25 45 11.25H40.5V9ZM9 24.75C8.40326 24.75 7.83097 24.9871 7.40901 25.409C6.98705 25.831 6.75 26.4033 6.75 27C6.75 27.5967 6.98705 28.169 7.40901 28.591C7.83097 29.0129 8.40326 29.25 9 29.25H13.5V31.5C13.5 32.0967 13.7371 32.669 14.159 33.091C14.581 33.5129 15.1533 33.75 15.75 33.75C16.3467 33.75 16.919 33.5129 17.341 33.091C17.7629 32.669 18 32.0967 18 31.5V29.25H45C45.5967 29.25 46.169 29.0129 46.591 28.591C47.0129 28.169 47.25 27.5967 47.25 27C47.25 26.4033 47.0129 25.831 46.591 25.409C46.169 24.9871 45.5967 24.75 45 24.75H18V22.5C18 21.9033 17.7629 21.331 17.341 20.909C16.919 20.4871 16.3467 20.25 15.75 20.25C15.1533 20.25 14.581 20.4871 14.159 20.909C13.7371 21.331 13.5 21.9033 13.5 22.5V24.75H9ZM6.75 40.5C6.75 39.9033 6.98705 39.331 7.40901 38.909C7.83097 38.4871 8.40326 38.25 9 38.25H36V36C36 35.4033 36.2371 34.831 36.659 34.409C37.081 33.9871 37.6533 33.75 38.25 33.75C38.8467 33.75 39.419 33.9871 39.841 34.409C40.2629 34.831 40.5 35.4033 40.5 36V38.25H45C45.5967 38.25 46.169 38.4871 46.591 38.909C47.0129 39.331 47.25 39.9033 47.25 40.5C47.25 41.0967 47.0129 41.669 46.591 42.091C46.169 42.5129 45.5967 42.75 45 42.75H40.5V45C40.5 45.5967 40.2629 46.169 39.841 46.591C39.419 47.0129 38.8467 47.25 38.25 47.25C37.6533 47.25 37.081 47.0129 36.659 46.591C36.2371 46.169 36 45.5967 36 45V42.75H9C8.40326 42.75 7.83097 42.5129 7.40901 42.091C6.98705 41.669 6.75 41.0967 6.75 40.5Z" fill="#BD7C52"/>
</g>
<defs>
<clipPath id="clip0_21_376">
<rect width="54" height="54" fill="white"/>
</clipPath>
</defs>
</svg>
